<?xml version="1.0" standalone="no"?>
<!DOCTYPE svg PUBLIC "-//W3C//DTD SVG 20010904//EN"
 "http://www.w3.org/TR/2001/REC-SVG-20010904/DTD/svg10.dtd">
<svg version="1.0" xmlns="http://www.w3.org/2000/svg"
 width="2792.000000pt" height="2900.000000pt" viewBox="0 0 2792.000000 2900.000000"
 preserveAspectRatio="xMidYMid meet">

<g transform="translate(0.000000,2900.000000) scale(0.100000,-0.100000)"
fill="#000000" stroke="none">
<path d="M13785 28104 c-272 -27 -355 -42 -670 -119 -432 -105 -725 -230
-1055 -450 -440 -293 -695 -538 -987 -947 -280 -392 -420 -699 -538 -1183
-102 -419 -120 -549 -120 -885 0 -336 18 -466 120 -885 118 -484 258 -791 538
-1183 127 -178 226 -300 340 -418 53 -56 97 -104 97 -106 0 -9 -74 -37 -139
-53 -35 -9 -79 -25 -99 -36 -20 -10 -43 -19 -50 -19 -18 0 -389 -145 -459
-179 -23 -12 -48 -21 -55 -21 -13 0 -64 -24 -328 -154 -286 -142 -574 -303
-745 -416 -22 -15 -78 -52 -125 -83 -576 -377 -1081 -801 -1510 -1267 -52 -56
-104 -112 -116 -124 -31 -30 -284 -333 -325 -387 -19 -25 -93 -124 -165 -220
-183 -244 -370 -527 -514 -779 -138 -241 -311 -578 -351 -680 -7 -19 -21 -46
-30 -60 -9 -14 -25 -50 -34 -80 -10 -30 -21 -59 -25 -65 -10 -13 -77 -177 -95
-231 -7 -23 -22 -59 -33 -81 -11 -21 -28 -68 -37 -102 -9 -35 -22 -73 -30 -85
-7 -11 -23 -57 -35 -101 -12 -44 -27 -88 -32 -98 -5 -10 -23 -68 -39 -130 -65
-244 -112 -427 -135 -527 -14 -58 -37 -152 -51 -210 -13 -58 -35 -179 -49
-270 -13 -91 -30 -189 -38 -219 -8 -29 -22 -148 -31 -265 -8 -116 -21 -240
-28 -276 -8 -45 -12 -232 -12 -620 0 -388 4 -575 12 -620 7 -36 20 -160 28
-276 9 -117 23 -236 31 -265 8 -30 25 -128 38 -219 14 -91 36 -214 51 -275 65
-276 63 -260 38 -250 -68 26 -305 83 -458 110 -152 26 -415 48 -605 49 -256 1
-361 -6 -554 -39 -174 -29 -252 -48 -509 -126 -506 -153 -849 -334 -1220 -647
-87 -73 -451 -429 -498 -487 -225 -275 -373 -517 -514 -840 -178 -408 -248
-682 -294 -1155 -5 -52 -8 -216 -7 -365 5 -352 30 -521 128 -855 22 -74 51
-173 64 -219 67 -230 224 -566 366 -783 143 -219 265 -364 528 -629 340 -344
604 -522 1080 -732 310 -136 642 -229 935 -261 28 -3 97 -11 155 -17 120 -14
489 -18 631 -6 351 27 915 184 1269 354 386 184 673 400 1066 803 123 126 258
295 364 456 201 306 404 777 485 1127 l28 117 34 -26 c18 -14 46 -37 61 -51
37 -35 213 -185 306 -261 172 -142 429 -328 676 -489 47 -31 103 -68 125 -83
174 -115 462 -276 755 -420 91 -45 196 -97 234 -116 37 -19 75 -34 83 -34 7 0
33 -9 56 -21 70 -34 441 -179 459 -179 7 0 30 -9 50 -19 20 -11 64 -27 99 -36
35 -9 85 -25 111 -35 25 -11 85 -29 133 -40 48 -11 94 -24 104 -29 9 -5 73
-23 141 -39 69 -17 179 -44 245 -60 265 -65 395 -92 510 -107 66 -9 154 -25
195 -35 42 -10 168 -26 285 -34 116 -9 246 -22 290 -28 112 -17 1119 -17 1230
0 44 6 175 19 290 28 116 8 244 24 285 34 41 10 129 26 195 35 115 15 245 42
510 107 66 16 176 43 245 60 68 16 132 34 141 39 10 5 56 18 104 29 48 11 108
29 133 40 26 10 76 26 111 35 35 9 79 25 99 36 20 10 43 19 50 19 18 0 389
145 459 179 23 12 49 21 56 21 8 0 46 15 83 34 38 19 143 71 234 116 293 144
581 305 755 420 22 15 78 52 125 83 247 161 504 347 676 489 93 76 269 226
306 261 15 14 42 37 61 51 l33 25 23 -97 c56 -232 170 -530 306 -797 184 -361
386 -624 727 -943 214 -200 317 -284 488 -397 343 -228 661 -360 1190 -494
267 -67 422 -86 735 -86 625 0 1060 98 1625 367 201 96 399 218 595 366 166
126 563 534 717 738 179 235 350 556 450 844 40 113 123 391 153 510 144 577
100 1345 -111 1928 -147 406 -336 753 -570 1047 -150 189 -506 528 -726 694
-253 190 -640 388 -923 471 -33 10 -120 36 -193 58 -245 75 -485 122 -722 141
-130 11 -446 6 -560 -8 -47 -6 -112 -13 -145 -16 -133 -14 -312 -47 -461 -85
-87 -22 -159 -39 -160 -37 -3 3 -1 15 45 207 16 69 37 184 46 255 9 72 25 164
35 205 11 42 26 168 35 285 8 116 21 239 28 275 8 45 12 232 12 620 0 388 -4
575 -12 620 -7 36 -20 160 -28 275 -9 117 -24 243 -35 285 -10 41 -26 134 -35
205 -9 72 -30 184 -45 250 -105 445 -136 568 -160 645 -11 36 -30 103 -44 150
-47 167 -84 281 -94 293 -6 7 -16 35 -22 62 -7 28 -25 79 -41 115 -15 36 -48
117 -73 180 -24 63 -51 129 -60 145 -9 17 -16 33 -16 37 0 28 -188 417 -300
623 -223 406 -394 675 -633 993 -73 97 -147 196 -166 221 -41 54 -294 357
-325 387 -12 12 -64 68 -116 124 -429 466 -934 890 -1510 1267 -47 31 -103 68
-125 83 -174 115 -462 276 -755 420 -91 45 -196 97 -234 116 -37 19 -75 34
-83 34 -7 0 -33 9 -56 21 -70 34 -441 179 -459 179 -7 0 -30 9 -50 19 -20 11
-64 27 -99 36 -65 16 -139 44 -139 53 0 2 44 50 98 106 273 285 553 701 696
1036 121 284 245 760 288 1100 17 138 17 562 0 700 -43 340 -167 816 -288
1100 -182 428 -556 937 -909 1240 -279 238 -626 463 -904 585 -273 119 -732
243 -1072 290 -108 15 -526 28 -614 19z m595 -529 c688 -87 1309 -392 1800
-884 488 -490 785 -1098 876 -1796 13 -92 18 -201 18 -375 0 -335 -35 -588
-121 -870 -155 -512 -406 -934 -778 -1305 -186 -186 -369 -331 -587 -463 l-67
-41 -22 36 c-15 23 -19 40 -13 48 5 7 29 36 52 66 152 186 174 408 55 549 -44
53 -135 106 -225 131 -116 32 -322 32 -453 0 -199 -48 -336 -106 -485 -206
-269 -179 -425 -414 -406 -612 6 -77 32 -134 85 -195 l41 -46 0 -86 0 -86
-135 0 -135 0 0 91 c0 90 0 91 38 137 52 63 72 109 78 184 19 200 -137 434
-406 613 -149 100 -286 158 -485 206 -131 32 -337 32 -453 0 -187 -53 -290
-164 -300 -322 -7 -124 47 -266 145 -378 l46 -53 -18 -35 c-11 -20 -25 -37
-31 -40 -22 -8 -267 153 -434 286 -127 101 -356 331 -459 461 -363 457 -581
971 -657 1555 -13 92 -18 201 -18 375 0 265 13 402 60 630 161 783 640 1488
1314 1935 453 300 934 463 1505 509 101 8 453 -4 575 -19z m-1235 -5314 c187
-40 330 -113 465 -237 l60 -56 0 -1509 c0 -830 -1 -1509 -2 -1510 -2 0 -79 -8
-173 -18 -159 -17 -381 -56 -572 -102 -45 -10 -89 -19 -98 -19 -13 0 -15 153
-15 1450 l0 1450 25 67 c32 85 59 113 149 157 107 53 210 76 366 83 l135 6
-80 38 c-289 136 -525 143 -706 19 -65 -44 -74 -38 -44 33 56 135 259 196 490
148z m1985 9 c112 -21 204 -83 235 -157 30 -71 21 -77 -44 -33 -181 124 -417
117 -706 -19 l-80 -38 135 -6 c156 -7 259 -30 366 -83 90 -44 117 -72 149
-157 l25 -67 0 -1450 c0 -1374 -1 -1450 -17 -1450 -10 0 -43 7 -73 15 -30 8
-82 19 -115 25 -63 11 -168 32 -270 55 -33 7 -121 18 -195 25 -74 6 -145 13
-157 16 l-23 4 0 1514 0 1514 56 51 c199 182 497 282 714 241z m-3033 -791
c43 -28 106 -66 141 -86 34 -19 62 -40 62 -47 0 -7 -65 -27 -162 -49 -90 -21
-179 -45 -198 -52 -19 -8 -80 -26 -135 -40 -119 -29 -249 -70 -287 -90 -15 -8
-63 -24 -105 -35 -43 -12 -87 -27 -98 -34 -11 -7 -45 -21 -75 -31 -30 -9 -64
-23 -75 -29 -11 -7 -42 -20 -70 -30 -49 -18 -68 -26 -230 -101 -292 -135 -602
-304 -795 -432 -25 -17 -85 -56 -135 -88 -154 -100 -493 -344 -591 -424 -17
-14 -48 -40 -70 -58 -248 -204 -324 -273 -549 -498 -216 -216 -448 -477 -575
-650 -24 -33 -46 -62 -50 -65 -14 -12 -240 -330 -358 -505 -87 -129 -173 -265
-207 -330 -18 -33 -66 -121 -107 -195 -41 -74 -96 -180 -123 -235 -26 -55 -72
-150 -101 -210 -30 -61 -54 -116 -54 -122 0 -7 -15 -47 -34 -90 -18 -43 -39
-96 -46 -118 -7 -22 -19 -49 -26 -60 -7 -11 -22 -51 -33 -90 -10 -38 -28 -92
-40 -120 -29 -73 -57 -165 -90 -292 -16 -61 -32 -117 -36 -123 -16 -26 -162
-661 -180 -785 -9 -60 -22 -139 -31 -175 -8 -36 -26 -159 -41 -275 -68 -548
-47 -1533 41 -1925 9 -36 22 -114 31 -175 19 -130 162 -750 182 -791 5 -10 16
-45 23 -78 13 -57 13 -58 -11 -77 -58 -45 -70 -44 -163 6 -84 46 -86 48 -101
98 -68 242 -108 412 -154 647 -58 299 -83 488 -123 925 -17 187 -17 903 0
1090 29 316 44 448 68 605 225 1469 845 2803 1823 3925 136 155 461 485 622
631 777 704 1679 1237 2670 1579 158 54 480 152 506 154 7 1 47 -22 90 -50z
m4067 1 c1098 -317 2141 -901 3005 -1684 161 -146 486 -476 622 -631 978
-1122 1598 -2456 1823 -3925 24 -157 39 -289 68 -605 8 -87 13 -293 13 -545 0
-394 -3 -455 -41 -835 -30 -300 -100 -698 -179 -1015 -68 -271 -52 -244 -180
-316 -104 -58 -112 -61 -137 -48 -15 8 -29 18 -32 23 -6 9 17 112 29 132 4 6
20 65 36 132 98 411 129 554 144 652 9 61 22 139 31 175 88 392 109 1377 41
1925 -15 116 -32 230 -38 255 -6 25 -19 100 -30 167 -10 67 -45 238 -79 382
-86 372 -97 419 -105 431 -4 7 -20 62 -36 123 -33 127 -61 219 -90 292 -12 28
-30 82 -40 120 -11 39 -26 79 -33 90 -7 11 -19 38 -26 60 -29 90 -114 285
-236 540 -84 176 -280 525 -382 680 -109 164 -395 570 -412 585 -4 3 -26 32
-50 65 -127 173 -359 434 -575 650 -225 225 -301 294 -549 498 -22 18 -53 44
-70 58 -98 80 -437 324 -591 424 -49 32 -110 71 -135 88 -193 128 -503 297
-795 432 -162 75 -181 83 -230 101 -27 10 -59 23 -70 30 -11 6 -45 20 -75 29
-30 10 -64 24 -75 31 -11 7 -55 22 -98 34 -42 11 -90 27 -105 35 -38 20 -168
61 -287 90 -55 14 -116 32 -135 39 -19 8 -96 29 -170 46 -178 41 -170 39 -170
59 0 13 30 37 93 74 50 31 108 67 127 81 19 14 39 25 44 26 5 0 86 -22 180
-50z m-3866 -1511 l-3 -511 -113 -39 c-572 -193 -1156 -509 -1633 -881 -281
-219 -601 -522 -803 -761 -55 -64 -104 -117 -110 -117 -17 0 -846 482 -846
492 0 14 147 193 281 343 742 831 1685 1463 2744 1837 119 42 454 146 478 147
4 1 6 -229 5 -510z m3583 461 c1025 -296 2014 -886 2793 -1666 206 -206 506
-547 493 -560 -3 -3 -196 -115 -428 -250 l-424 -245 -29 33 c-385 439 -744
755 -1196 1053 -397 262 -845 481 -1287 630 l-83 28 0 508 c0 357 3 509 11
509 6 0 73 -18 150 -40z m-1511 -2109 c485 -49 894 -151 1308 -328 1028 -437
1851 -1276 2269 -2313 203 -501 307 -1034 308 -1575 1 -1014 -322 -1919 -974
-2725 -116 -144 -429 -453 -583 -578 -678 -547 -1434 -856 -2313 -944 -168
-17 -584 -17 -745 0 -672 71 -1249 257 -1790 577 -699 413 -1271 1028 -1634
1755 -301 604 -446 1221 -446 1900 0 744 186 1452 547 2089 696 1225 1949
2027 3347 2141 71 5 132 13 135 16 9 9 445 -2 571 -15z m5805 -1863 c110 -273
241 -731 314 -1098 161 -813 162 -1709 1 -2535 -24 -129 -108 -484 -115 -493
-3 -3 -866 495 -876 505 -3 5 4 60 17 123 36 176 71 416 91 610 22 219 25 776
5 985 -46 489 -125 871 -270 1313 -40 122 -44 145 -32 152 233 138 828 479
836 480 7 0 20 -19 29 -42z m-11905 -278 c223 -128 406 -234 408 -236 2 -1
-12 -51 -32 -111 -133 -409 -213 -805 -258 -1278 -20 -210 -17 -766 5 -985 21
-210 48 -393 88 -594 16 -82 26 -153 22 -157 -29 -26 -867 -499 -873 -492 -4
4 -28 94 -54 198 -300 1230 -237 2550 179 3740 29 85 56 159 60 165 5 8 13 7
28 -3 12 -8 204 -119 427 -247z m11565 -4131 c737 -425 1351 -779 1365 -786
29 -15 118 -117 131 -151 15 -39 10 -172 -9 -252 -22 -90 -70 -207 -117 -285
-19 -32 -35 -61 -35 -66 0 -17 163 106 234 177 83 82 145 169 177 252 20 48
23 76 24 173 l0 116 21 -16 c36 -26 62 -73 74 -128 41 -188 -151 -469 -421
-617 -69 -37 -204 -86 -239 -86 -16 0 -2690 1531 -2933 1679 l-28 17 51 78
c28 43 81 133 116 200 36 66 70 126 76 133 15 19 77 151 104 222 32 82 53 123
62 118 4 -3 610 -352 1347 -778z m-10335 730 c0 -24 112 -259 174 -367 37 -62
66 -115 66 -117 0 -7 59 -105 108 -177 25 -38 44 -70 41 -72 -2 -2 -58 -34
-124 -71 -118 -67 -1804 -1039 -2475 -1428 l-345 -200 -55 12 c-82 16 -245
101 -335 174 -200 161 -314 380 -275 527 13 50 53 115 77 124 13 5 14 -2 9
-48 -12 -89 18 -216 71 -311 36 -66 114 -156 186 -216 78 -66 175 -134 181
-128 2 2 -12 31 -31 64 -87 147 -133 299 -133 441 l0 92 42 54 c23 29 49 60
57 68 19 20 2732 1589 2749 1589 6 1 12 -4 12 -10z m13851 -904 c275 -31 480
-75 694 -147 1044 -351 1815 -1216 2040 -2288 75 -357 84 -778 24 -1135 -97
-576 -359 -1124 -736 -1542 -259 -287 -538 -506 -856 -673 -348 -183 -684
-286 -1117 -345 -79 -10 -502 -14 -595 -5 -639 64 -1183 285 -1680 683 -137
110 -361 338 -469 477 -339 436 -555 939 -630 1465 -15 107 -36 352 -36 428
l0 37 44 0 c43 0 45 -2 56 -37 7 -21 31 -74 53 -117 104 -201 277 -300 442
-251 233 67 416 347 480 734 26 151 17 389 -19 526 -61 234 -183 401 -329 451
-53 18 -159 20 -201 4 -25 -9 -37 -5 -102 31 -41 22 -74 45 -74 50 0 6 28 59
62 119 l63 109 65 -36 c98 -55 98 -55 104 -88 10 -51 68 -132 125 -175 80 -60
141 -75 301 -74 116 1 148 5 225 28 398 119 774 466 860 793 20 75 20 194 0
260 -36 122 -158 212 -315 233 -74 11 -185 6 -248 -10 -31 -8 -34 -6 -59 31
-31 47 -42 36 112 118 281 151 641 271 950 318 17 2 57 8 90 14 33 5 107 12
165 15 58 4 106 8 108 9 6 5 350 -3 403 -10z m-18151 -49 c14 -2 54 -7 90 -11
36 -3 83 -10 105 -15 22 -4 62 -11 89 -15 73 -9 337 -79 446 -119 177 -63 460
-192 524 -239 19 -14 19 -15 -4 -51 -16 -26 -27 -35 -39 -31 -9 4 -52 11 -96
16 -218 25 -393 -48 -468 -196 -43 -86 -42 -219 3 -349 121 -353 556 -702 954
-767 102 -16 256 -7 323 19 107 41 181 118 212 218 16 52 21 57 87 95 45 26
74 38 82 32 13 -8 136 -213 130 -218 -2 -1 -39 -23 -82 -48 -69 -39 -82 -44
-108 -35 -54 19 -167 6 -232 -27 -123 -62 -230 -222 -283 -423 -35 -134 -44
-391 -18 -544 61 -370 250 -659 473 -723 200 -59 394 81 497 358 l18 48 46 -3
46 -3 -3 -120 c-16 -682 -278 -1371 -720 -1895 -477 -565 -1120 -932 -1846
-1055 -184 -31 -296 -40 -511 -40 -267 0 -423 17 -665 71 -457 102 -888 307
-1250 594 -125 98 -388 360 -484 480 -167 211 -326 478 -434 730 -93 218 -178
510 -206 715 -3 22 -11 72 -17 110 -17 113 -23 506 -10 641 53 531 215 995
498 1429 116 177 196 276 373 459 518 535 1245 870 1995 919 68 4 454 -1 485
-7z m12582 -379 c60 -34 738 -426 1507 -871 l1399 -808 17 -67 c23 -91 31
-253 15 -348 -16 -101 -62 -244 -99 -309 -45 -78 -129 -164 -186 -191 -54 -25
-141 -31 -177 -12 -18 10 -14 14 49 44 73 36 151 107 203 185 65 97 114 270
126 439 l6 86 -51 -84 c-61 -101 -107 -160 -175 -225 -99 -94 -202 -150 -259
-141 -121 20 -138 29 -1627 889 -817 472 -1488 861 -1493 865 -4 4 23 32 60
61 138 111 321 282 428 400 61 67 114 128 118 136 13 22 25 18 139 -49z
m-7366 -71 c135 -150 224 -235 391 -373 78 -65 141 -122 140 -126 -2 -5 -667
-392 -1479 -861 -812 -469 -1482 -857 -1490 -863 -7 -6 -53 -19 -102 -28 l-88
-17 -62 31 c-33 17 -87 51 -118 75 -67 54 -175 184 -224 272 -20 35 -39 66
-43 68 -4 3 -3 -37 1 -87 25 -301 143 -521 326 -608 39 -19 71 -37 71 -41 1
-12 -67 -21 -117 -16 -67 7 -111 31 -177 96 -67 68 -134 195 -165 317 -42 160
-33 446 15 521 7 11 55 45 107 74 152 86 2799 1615 2853 1648 28 17 53 30 56
29 3 -1 50 -51 105 -111z m7775 -1736 c239 -138 435 -254 437 -259 3 -10 -173
-180 -318 -305 -699 -602 -1573 -1079 -2427 -1325 -262 -75 -718 -181 -782
-181 -8 0 -11 124 -9 497 l3 497 160 37 c872 201 1666 595 2351 1166 67 56
125 106 129 112 3 6 10 11 14 11 5 0 204 -113 442 -250z m-7805 134 c753 -631
1654 -1053 2617 -1225 l127 -23 0 -493 c0 -487 0 -493 -20 -493 -34 0 -217 29
-375 60 -1009 194 -1964 628 -2790 1269 -228 176 -580 490 -565 504 5 4 874
506 877 507 1 0 59 -48 129 -106z m9055 -856 l39 -22 0 -75 c0 -42 3 -86 6
-99 5 -18 -11 -40 -92 -123 -448 -457 -1093 -935 -1729 -1282 -854 -465 -1842
-775 -2792 -876 -392 -42 -466 -46 -873 -46 -491 0 -789 23 -1210 90 -1246
201 -2393 685 -3395 1435 -282 211 -578 466 -795 685 l-95 95 0 83 c0 89 -2
86 70 126 l40 22 156 -153 c187 -184 276 -264 503 -451 22 -18 53 -44 70 -58
98 -80 437 -324 591 -424 50 -32 110 -71 135 -88 193 -128 503 -297 795 -432
162 -75 181 -83 230 -101 28 -10 59 -23 70 -30 11 -6 45 -20 75 -29 30 -10 64
-24 75 -31 11 -7 55 -22 98 -34 42 -11 90 -27 105 -35 38 -20 168 -61 287 -90
55 -14 116 -32 135 -39 19 -8 94 -28 165 -45 72 -17 204 -48 295 -70 91 -22
226 -49 300 -61 74 -12 164 -28 200 -36 397 -88 1378 -109 1925 -41 116 15
239 33 275 41 36 8 126 24 200 36 74 12 209 39 300 61 91 22 224 53 295 70 72
17 146 37 165 45 19 7 80 25 135 39 119 29 249 70 287 90 15 8 63 24 105 35
43 12 87 27 98 34 11 7 45 21 75 31 30 9 64 23 75 29 11 7 43 20 70 30 49 18
68 26 230 101 292 135 602 304 795 432 25 17 86 56 135 88 154 100 493 344
591 424 17 14 48 40 70 58 228 188 316 267 508 456 88 86 162 157 164 157 2 0
22 -10 43 -22z"/>
<path d="M13812 27228 c-341 -43 -625 -204 -729 -415 -36 -73 -38 -82 -38
-173 0 -91 2 -100 38 -173 87 -177 287 -312 561 -382 521 -132 1106 44 1273
382 36 73 38 82 38 173 0 91 -2 100 -38 173 -146 295 -626 475 -1105 415z"/>
<path d="M13705 16039 c-515 -53 -1014 -256 -1445 -587 -127 -98 -402 -379
-502 -512 -200 -269 -333 -523 -438 -840 -59 -178 -85 -289 -117 -505 -20
-134 -29 -538 -14 -610 6 -27 20 -111 31 -185 121 -775 557 -1455 1219 -1904
306 -207 692 -362 1071 -430 319 -57 661 -57 980 0 768 138 1438 581 1866
1234 170 260 285 518 364 814 70 262 94 448 94 731 0 240 -8 334 -49 539 -79
404 -260 803 -523 1156 -100 133 -375 414 -502 512 -436 335 -931 534 -1459
588 -118 12 -458 11 -576 -1z m595 -622 c147 -23 295 -52 390 -78 532 -146
949 -440 1128 -796 105 -208 136 -417 92 -610 -47 -203 -123 -347 -269 -507
-231 -254 -576 -447 -986 -551 -123 -31 -166 -40 -330 -66 -38 -6 -176 -13
-306 -16 -240 -6 -376 4 -584 43 -395 73 -754 232 -1017 451 -198 165 -334
364 -399 588 -21 69 -24 102 -24 235 0 177 15 249 86 400 220 468 805 813
1538 905 62 7 116 16 119 20 13 13 449 -1 562 -18z m-2235 -3737 c380 -316
838 -531 1375 -644 492 -104 915 -75 1469 99 441 138 825 364 1167 688 53 51
92 83 86 72 -30 -56 -282 -333 -383 -421 -109 -96 -282 -234 -293 -234 -3 0
-25 -13 -48 -29 -127 -84 -389 -215 -511 -255 -40 -13 -88 -31 -107 -40 -19
-9 -75 -25 -125 -36 -49 -11 -124 -28 -165 -39 -103 -26 -366 -51 -540 -51
-174 0 -437 25 -540 51 -41 11 -115 28 -165 39 -49 11 -106 27 -125 36 -19 9
-67 27 -107 40 -122 40 -384 171 -511 255 -23 16 -45 29 -48 29 -11 0 -184
138 -293 234 -101 88 -354 366 -383 421 -6 11 27 -16 73 -60 46 -44 125 -114
174 -155z"/>
<path d="M11588 15879 c-223 -35 -466 -213 -586 -429 -81 -146 -85 -307 -9
-388 55 -59 185 -88 284 -62 26 6 55 13 64 15 40 8 130 52 204 100 234 150
399 428 355 595 -34 131 -151 194 -312 169z"/>
<path d="M16277 15879 c-95 -22 -153 -76 -177 -169 -44 -167 121 -445 355
-595 74 -48 164 -92 204 -100 9 -2 38 -9 64 -15 63 -16 174 -7 224 18 229 118
103 509 -237 739 -140 95 -322 146 -433 122z"/>
<path d="M25125 8619 c-293 -39 -596 -301 -785 -679 -44 -86 -105 -278 -119
-370 -14 -91 -15 -257 -2 -326 32 -166 121 -292 249 -352 51 -24 68 -27 172
-27 130 0 179 13 299 77 552 293 865 1154 559 1541 -81 101 -229 156 -373 136z"/>
<path d="M2682 8624 c-180 -48 -293 -199 -321 -431 -73 -601 506 -1356 1012
-1319 185 13 317 135 374 346 23 88 24 286 0 397 -85 403 -357 782 -673 942
-138 69 -285 94 -392 65z"/>
</g>
</svg>
